<svg width="153" height="21" viewBox="0 0 153 21" fill="none" xmlns="http://www.w3.org/2000/svg">
<path d="M20.68 20.85L20.65 5.66L12.59 18.32H11.12L3.06 5.75V20.85H0V0H2.60999L11.91 14.65L21.09 0H23.7L23.73 20.85H20.68V20.85Z" fill="#333333"/>
<path d="M44.91 18.26V20.85H28.73V0H44.47V2.59H31.92V8.99H43.1V11.52H31.92V18.25H44.91V18.26Z" fill="#333333"/>
<path d="M49.9099 0H53.0999V20.85H49.9099V0Z" fill="#333333"/>
<path d="M77.28 0V20.85H74.67L61.29 5.3V20.85H58.1V0H60.71L74.09 15.55V0H77.28Z" fill="#333333"/>
<path d="M95.5299 0H92.3799L82.2799 20.85H85.5599L87.9999 15.66L88.0099 15.64L89.1299 13.26L93.9399 3.05L98.7499 13.26L99.8599 15.64L102.31 20.85H105.65L95.5299 0Z" fill="#333333"/>
<path d="M125.56 20.85L120.75 14.45C120.16 14.49 119.69 14.51 119.35 14.51H113.84V20.85H110.65V0H119.35C122.24 0 124.51 0.65 126.17 1.94C127.83 3.23 128.66 5.01 128.66 7.27C128.66 8.88 128.23 10.25 127.39 11.38C126.54 12.51 125.33 13.34 123.76 13.85L129.05 20.85H125.56ZM123.87 10.75C124.93 9.94 125.46 8.77 125.46 7.27C125.46 5.76 124.93 4.6 123.87 3.8C122.81 3 121.27 2.59 119.25 2.59H113.83V11.97H119.25C121.27 11.97 122.81 11.57 123.87 10.75Z" fill="#333333"/>
<path d="M141.7 2.59H134.05V0H152.5V2.59H144.85V20.85H141.7V2.59V2.59Z" fill="#333333"/>
</svg>
